# xmcd
#
# Track frame offsets: 
#        150
#        11602
#        34250
#        53360
#        64762
#        78465
#        99995
#        119487
#        132677
#        150450
#        169575
#        207640
#        221497
#        233275
#        247062
#        261985
#        274122
#        284485
#        294115
#        304122
#        313105
#
# Disc length: 4315 seconds
#
# Revision: 3
# Processed by: cddbd v1.5.2PL0 Copyright (c) Steve Scherf et al.
# Submitted via: ExactAudioCopyFreeDBPlugin 1.0
#
DISCID=2f10d915
DTITLE=Johnny Cash - Come Along And Ride This Train - Disc 1
DYEAR=1991
DGENRE=Country
TTITLE0=Come Along And Ride This Train
TTITLE1=Loading Coal
TTITLE2=Slow Rider
TTITLE3=Johnny Cash with Lorne Greene - The Shifting Whispering Sands
TTITLE4=Lumberjack
TTITLE5=Dorraine Of Ponchartrain
TTITLE6=Going To Memphis
TTITLE7=When Papa Played The Dobro
TTITLE8=Boss Jack
TTITLE9=Old Doc Brown
TTITLE10=The Legend Of John Henry's Hammer
TTITLE11=Tell Him I'm Gone
TTITLE12=Johnny Cash Anita Carter - Another Man Done Gone
TTITLE13=Casey Jones
TTITLE14=Nine Pound Hammer
TTITLE15=Chain Gang
TTITLE16=Busted
TTITLE17=Waiting For A Train
TTITLE18=Roughneck
TTITLE19=Pick A Bale Of Cotton
TTITLE20=Cotton Pickin' Hands
EXTD=
EXTT0=
EXTT1=
EXTT2=
EXTT3=
EXTT4=
EXTT5=
EXTT6=
EXTT7=
EXTT8=
EXTT9=
EXTT10=
EXTT11=
EXTT12=
EXTT13=
EXTT14=
EXTT15=
EXTT16=
EXTT17=
EXTT18=
EXTT19=
EXTT20=
PLAYORDER=
